<?xml version="1.0" encoding="UTF-8"?> <svg xmlns="http://www.w3.org/2000/svg" width="30" height="30" viewBox="0 0 30 30" fill="none"><g clip-path="url(#clip0_19_3)"><rect width="30" height="30" fill="white"></rect><path d="M22.9422 5.35503C22.594 5.35503 22.2537 5.45823 21.9642 5.65159C21.6748 5.84495 21.4491 6.1198 21.3159 6.44135C21.1827 6.7629 21.1478 7.11674 21.2157 7.45809C21.2836 7.79945 21.4513 8.11301 21.6975 8.35912C21.9437 8.60522 22.2573 8.77281 22.5987 8.84071C22.9402 8.90861 23.2941 8.87377 23.6158 8.74058C23.9374 8.60739 24.2123 8.38184 24.4057 8.09245C24.5991 7.80306 24.7024 7.46282 24.7024 7.11478C24.7024 6.88368 24.6569 6.65486 24.5684 6.44135C24.48 6.22785 24.3503 6.03385 24.1868 5.87044C24.0234 5.70703 23.8293 5.57741 23.6158 5.48898C23.4022 5.40054 23.1733 5.35503 22.9422 5.35503Z" fill="#A5A5A5"></path><path d="M15.1263 7.65367C13.6634 7.652 12.2329 8.08416 11.0157 8.89546C9.79858 9.70676 8.84947 10.8607 8.28849 12.2114C7.72751 13.5621 7.57987 15.0488 7.86424 16.4834C8.14862 17.918 8.85223 19.236 9.88606 20.2707C10.9199 21.3054 12.2375 22.0104 13.6722 22.2963C15.1068 22.5822 16.5941 22.4363 17.9458 21.877C19.2975 21.3177 20.4529 20.3702 21.2658 19.1543C22.0787 17.9384 22.5126 16.5088 22.5126 15.0463C22.5104 13.0878 21.7318 11.21 20.3473 9.82435C18.9628 8.43868 17.0854 7.65812 15.1263 7.65367ZM15.1263 19.7783C14.1902 19.7783 13.275 19.5008 12.4966 18.9808C11.7182 18.4609 11.1116 17.7218 10.7533 16.8572C10.3951 15.9925 10.3013 15.0411 10.484 14.1232C10.6666 13.2052 11.1174 12.3621 11.7794 11.7003C12.4413 11.0385 13.2848 10.5879 14.2029 10.4053C15.1211 10.2227 16.0728 10.3164 16.9377 10.6745C17.8026 11.0327 18.5418 11.6392 19.0619 12.4174C19.582 13.1955 19.8596 14.1104 19.8596 15.0463C19.8463 16.2933 19.342 17.4848 18.456 18.3627C17.57 19.2406 16.3737 19.734 15.1263 19.7362V19.7783Z" fill="#A5A5A5"></path><path d="M20.9882 30H9.01175C6.62236 29.9978 4.33148 29.0479 2.64192 27.3588C0.952366 25.6697 0.00222995 23.3795 0 20.9907V9.00926C0.00222995 6.62054 0.952366 4.33029 2.64192 2.64121C4.33148 0.952124 6.62236 0.00222933 9.01175 0H20.9882C23.3776 0.00222933 25.6685 0.952124 27.358 2.64121C29.0476 4.33029 29.9978 6.62054 30 9.00926V20.9907C29.9978 23.3795 29.0476 25.6697 27.358 27.3588C25.6685 29.0479 23.3776 29.9978 20.9882 30ZM9.01175 2.82065C7.37065 2.82288 5.79744 3.4756 4.63701 4.63571C3.47658 5.79582 2.82366 7.36863 2.82143 9.00926V20.9907C2.82366 22.6314 3.47658 24.2042 4.63701 25.3643C5.79744 26.5244 7.37065 27.1771 9.01175 27.1793H20.9882C22.6293 27.1771 24.2025 26.5244 25.3629 25.3643C26.5234 24.2042 27.1763 22.6314 27.1785 20.9907V9.00926C27.1763 7.36863 26.5234 5.79582 25.3629 4.63571C24.2025 3.4756 22.6293 2.82288 20.9882 2.82065H9.01175Z" fill="#A5A5A5"></path></g><defs><clipPath id="clip0_19_3"><rect width="30" height="30" fill="white"></rect></clipPath></defs></svg> 