<?xml version="1.0" encoding="UTF-8"?> <svg xmlns="http://www.w3.org/2000/svg" width="30" height="30" viewBox="0 0 30 30" fill="none"><rect width="30" height="30" fill="white"></rect><path d="M23.78 3.9C19.8423 3.89547 17.6719 6.10219 16.3374 10.4023C17.0352 10.1441 17.7353 9.82461 18.3697 9.82461C19.7041 9.82461 20.1482 10.3208 19.9579 11.8614C19.8945 12.8243 19.5138 14.3785 18.3697 16.1752C17.2256 17.9084 16.2309 18.4 15.66 18.4C14.9622 18.4 14.432 17.3963 13.8611 14.7002C13.6708 13.9299 13.2267 12.1967 12.717 8.92516C12.2729 5.90961 10.7957 4.28742 8.7 4.48C7.81188 4.54344 6.7493 5.37039 4.97079 6.91102C3.69977 8.06649 2.49446 8.90024 1.16 10.0557L2.43102 11.6847C3.63633 10.8509 4.33641 10.5292 4.52672 10.5292C5.41485 10.5292 6.23953 11.9407 7.06649 14.8294C7.7643 17.4598 8.52555 20.0902 9.22563 22.7205C10.3041 25.6092 11.6385 27.0207 13.1633 27.0207C15.703 27.0207 18.7503 24.712 22.3708 19.9633C25.9255 15.4705 27.7131 11.7504 27.84 9.12C27.9669 5.65586 26.5735 3.96344 23.78 3.9Z" fill="#A5A5A5"></path></svg> 