<?xml version="1.0" encoding="UTF-8"?> <svg xmlns="http://www.w3.org/2000/svg" width="30" height="30" viewBox="0 0 30 30" fill="none"><rect width="30" height="30" fill="white"></rect><path d="M30 11.5884C30.0011 10.7236 29.8317 9.86704 29.5015 9.06775C29.1713 8.26846 28.6868 7.54209 28.0757 6.93019C27.4645 6.3183 26.7388 5.83287 25.9399 5.50167C25.141 5.17047 24.2847 5 23.4199 5H6.5884C4.84441 5.01087 3.17494 5.70849 1.94173 6.9417C0.70851 8.17492 0.0108663 9.84438 0 11.5884V19.4199C-6.8588e-07 20.2847 0.170469 21.141 0.501668 21.9399C0.832868 22.7388 1.3183 23.4645 1.93019 24.0757C2.54209 24.6868 3.26848 25.1713 4.06777 25.5015C4.86706 25.8317 5.7236 26.0011 6.5884 26H23.4199C24.2843 26.0011 25.1404 25.8316 25.9393 25.5013C26.7381 25.171 27.4639 24.6864 28.0752 24.0752C28.6864 23.4639 29.1711 22.7381 29.5014 21.9393C29.8317 21.1404 30.0011 20.2843 30 19.4199V11.5884ZM20.105 16.0884L12.5553 19.826C12.2569 19.9834 11.2542 19.7679 11.2542 19.4364V11.7707C11.2542 11.4226 12.2652 11.2155 12.5636 11.3812L19.79 15.3094C20.0884 15.4834 20.4116 15.9227 20.105 16.0884V16.0884Z" fill="#A5A5A5"></path></svg> 