<svg width="64" height="36" viewBox="0 0 64 36" fill="none" xmlns="http://www.w3.org/2000/svg">
<path d="M1.98056 16.1915L61.3677 16.1915C62.4604 16.1915 63.3473 17.0783 63.3473 18.1711C63.3473 19.2638 62.4604 20.1506 61.3677 20.1506L1.98056 20.1506C0.887836 20.1506 0.000988084 19.2638 0.00098818 18.1711C0.000988275 17.0783 0.887837 16.1915 1.98056 16.1915Z" fill="#636363"/>
<path d="M17.8171 0.354806C18.3239 0.354806 18.8307 0.548803 19.2186 0.93284C19.9907 1.70487 19.9907 2.95992 19.2186 3.73195L4.77965 18.171L19.2147 32.606C19.9867 33.378 19.9867 34.6331 19.2147 35.4051C18.4426 36.1771 17.1876 36.1771 16.4156 35.4051L0.578997 19.5685C-0.193036 18.7965 -0.193036 17.5414 0.578997 16.7694L16.4156 0.93284C16.8036 0.548803 17.3103 0.354806 17.8171 0.354806V0.354806Z" fill="#636363"/>
</svg>
