<svg width="64" height="36" viewBox="0 0 64 36" fill="none" xmlns="http://www.w3.org/2000/svg">
<path d="M61.3667 19.7926H1.97957C0.886848 19.7926 0 18.9058 0 17.8131C0 16.7203 0.886848 15.8335 1.97957 15.8335H61.3667C62.4595 15.8335 63.3463 16.7203 63.3463 17.8131C63.3463 18.9058 62.4595 19.7926 61.3667 19.7926Z" fill="#636363"/>
<path d="M45.5302 35.6293C45.0234 35.6293 44.5166 35.4353 44.1286 35.0513C43.3566 34.2793 43.3566 33.0242 44.1286 32.2522L58.5676 17.8132L44.1326 3.37814C43.3606 2.60611 43.3606 1.35106 44.1326 0.579025C44.9046 -0.193008 46.1597 -0.193008 46.9317 0.579025L62.7683 16.4156C63.5403 17.1876 63.5403 18.4427 62.7683 19.2147L46.9317 35.0513C46.5437 35.4353 46.037 35.6293 45.5302 35.6293V35.6293Z" fill="#636363"/>
</svg>
