<svg width="36" height="36" viewBox="0 0 36 36" fill="none" xmlns="http://www.w3.org/2000/svg">
<path d="M27.24 6.35999C26.8266 6.35999 26.4225 6.48255 26.0788 6.7122C25.7352 6.94186 25.4673 7.26828 25.3091 7.65018C25.1509 8.03207 25.1095 8.45231 25.1901 8.85773C25.2708 9.26315 25.4698 9.63555 25.7621 9.92784C26.0544 10.2201 26.4268 10.4192 26.8322 10.4998C27.2376 10.5805 27.6579 10.5391 28.0398 10.3809C28.4217 10.2227 28.7481 9.95483 28.9777 9.61113C29.2074 9.26743 29.3299 8.86334 29.3299 8.44998C29.3299 8.17552 29.2759 7.90375 29.1709 7.65018C29.0659 7.39661 28.9119 7.1662 28.7178 6.97212C28.5238 6.77805 28.2934 6.62411 28.0398 6.51907C27.7862 6.41404 27.5144 6.35999 27.24 6.35999Z" fill="#A5A5A5"/>
<path d="M17.96 9.09C16.223 9.08802 14.5245 9.60128 13.0794 10.5648C11.6342 11.5284 10.5073 12.8989 9.8412 14.5031C9.17513 16.1073 8.99983 17.8729 9.33747 19.5768C9.67512 21.2806 10.5105 22.8459 11.738 24.0749C12.9656 25.3038 14.53 26.141 16.2334 26.4806C17.9368 26.8201 19.7027 26.6469 21.3076 25.9826C22.9125 25.3184 24.2844 24.193 25.2496 22.749C26.2148 21.3049 26.73 19.6069 26.73 17.87C26.7274 15.5439 25.8028 13.3138 24.159 11.6681C22.5152 10.0223 20.286 9.09529 17.96 9.09ZM17.96 23.49C16.8484 23.49 15.7619 23.1604 14.8377 22.5429C13.9135 21.9253 13.1931 21.0476 12.7678 20.0207C12.3424 18.9938 12.2311 17.8638 12.4479 16.7736C12.6648 15.6834 13.2001 14.682 13.986 13.8961C14.772 13.1101 15.7734 12.5748 16.8636 12.358C17.9538 12.1411 19.0837 12.2524 20.1107 12.6778C21.1376 13.1032 22.0153 13.8235 22.6328 14.7477C23.2504 15.6719 23.58 16.7585 23.58 17.87C23.5642 19.351 22.9654 20.7662 21.9135 21.8088C20.8615 22.8514 19.4411 23.4375 17.96 23.44V23.49Z" fill="#A5A5A5"/>
<path d="M24.92 35.63H10.7C7.86295 35.6273 5.14291 34.4992 3.13684 32.4931C1.13078 30.4871 0.0026477 27.767 0 24.93V10.7C0.0026477 7.86299 1.13078 5.14294 3.13684 3.13687C5.14291 1.13081 7.86295 0.0026477 10.7 0H24.92C27.757 0.0026477 30.477 1.13081 32.4831 3.13687C34.4892 5.14294 35.6173 7.86299 35.62 10.7V24.93C35.6173 27.767 34.4892 30.4871 32.4831 32.4931C30.477 34.4992 27.757 35.6273 24.92 35.63ZM10.7 3.34999C8.75142 3.35264 6.8835 4.12786 5.50568 5.50568C4.12786 6.8835 3.35262 8.75147 3.34998 10.7V24.93C3.35262 26.8785 4.12786 28.7465 5.50568 30.1243C6.8835 31.5021 8.75142 32.2774 10.7 32.28H24.92C26.8685 32.2774 28.7364 31.5021 30.1143 30.1243C31.4921 28.7465 32.2673 26.8785 32.27 24.93V10.7C32.2673 8.75147 31.4921 6.8835 30.1143 5.50568C28.7364 4.12786 26.8685 3.35264 24.92 3.34999H10.7Z" fill="#A5A5A5"/>
</svg>
